<?xml version="1.0" encoding="UTF-8"?>
<!-- Generated by jsxcad -->
<!DOCTYPE svg PUBLIC "-//W3C//DTD SVG 1.1 Tiny//EN" "http://www.w3.org/Graphics/SVG/1.1/DTD/svg11-tiny.dtd">
<svg baseProfile="tiny" height="29.89845147033367mm" width="29.915525964706678mm" viewBox="0 0 29.915525964706678 29.89845147033367" version="1.1" stroke="black" stroke-width=".1" fill="none" xmlns="http://www.w3.org/2000/svg">
<path fill="#000000" stroke="#000000" d="M16.29114 1.07116 L16.20909 1.31922 L15.63926 1.27888 L15.6112 1.27751 L15.5644 1.02046 L15.49753 0.76287 L15.41386 0.50516 L15.31513 0.24765 L15.20246 -0.00934 L14.71306 -0.00934 L14.60039 0.24765 L14.50167 0.50516 L14.418 0.76287 L14.35113 1.02046 L14.30432 1.27751 L13.73441 1.31668 L13.70643 1.31922 L13.62439 1.07116 L13.52239 0.82535 L13.40375 0.58176 L13.27022 0.34045 L13.12296 0.1016 L12.6383 0.16956 L12.56241 0.4397 L12.5004 0.70842 L12.45333 0.97526 L12.42287 1.23963 L12.41221 1.50069 L11.84977 1.61944 L11.82242 1.62585 L11.70666 1.39161 L11.57146 1.16238 L11.42008 0.93766 L11.25429 0.71728 L11.07523 0.50124 L10.60473 0.63596 L10.56716 0.91403 L10.54314 1.18877 L10.53364 1.45955 L10.54026 1.7256 L10.56603 1.9856 L10.03075 2.17944 L10.00455 2.18958 L9.85742 1.97367 L9.69173 1.76541 L9.51064 1.56386 L9.31588 1.36861 L9.10858 1.17949 L8.66133 1.37818 L8.66269 1.65878 L8.67701 1.93418 L8.70517 2.20367 L8.74863 2.46623 L8.81021 2.72014 L8.27803 3.00251 L8.25353 3.01624 L8.0774 2.82325 L7.88399 2.64046 L7.67626 2.46648 L7.4559 2.30067 L7.22399 2.14269 L6.80925 2.40251 L6.85019 2.68011 L6.90323 2.95074 L6.96914 3.21356 L7.04922 3.46735 L7.14602 3.71003 L6.69912 4.0342 L6.67674 4.05117 L6.47576 3.88423 L6.25905 3.72976 L6.02938 3.58599 L5.78831 3.45205 L5.53689 3.32745 L5.1618 3.64181 L5.24052 3.91115 L5.33026 4.17192 L5.43167 4.42318 L5.54588 4.66356 L5.67512 4.89063 L5.26737 5.28283 L5.24756 5.30274 L5.02539 5.16523 L4.78938 5.04226 L4.54202 4.93167 L4.28473 4.83239 L4.01847 4.74381 L3.69052 5.10708 L3.80578 5.36292 L3.93076 5.60875 L4.06599 5.84355 L4.21237 6.0658 L4.37181 6.27279 L4.00299 6.74339 L3.98617 6.76589 L3.74686 6.66102 L3.49589 6.5725 L3.23542 6.49784 L2.96672 6.43578 L2.69064 6.38557 L2.4171 6.79139 L2.56723 7.02845 L2.72558 7.25424 L2.89251 7.46766 L3.06873 7.66709 L3.25572 7.84957 L2.96844 8.34627 L2.95492 8.37089 L2.70335 8.30032 L2.44251 8.24755 L2.17419 8.20983 L1.89946 8.18573 L1.61909 8.17439 L1.40463 8.61431 L1.58627 8.82819 L1.77447 9.02977 L1.96946 9.21791 L2.17169 9.3909 L2.38224 9.54561 L2.16243 10.08894 L2.15249 10.11521 L1.89352 10.08054 L1.62786 10.06479 L1.3569 10.06499 L1.08151 10.07957 L0.80231 10.10757 L0.65152 10.57317 L0.86129 10.75953 L1.07585 10.9328 L1.29525 11.0918 L1.5197 11.23478 L1.74983 11.35851 L1.61483 11.89814 L1.6086 11.92553 L1.34733 11.92687 L1.08203 11.94788 L0.81369 11.9854 L0.54293 12.03779 L0.27025 12.10399 L0.18504 12.58592 L0.41849 12.74161 L0.65488 12.88366 L0.89409 13.01092 L1.1361 13.12161 L1.38107 13.21245 L1.32046 13.78009 L1.31809 13.80808 L1.05953 13.84568 L0.79972 13.90331 L0.53919 13.97773 L0.27832 14.0672 L0.01747 14.17062 L0 14.65971 L0.2528 14.78148 L0.50662 14.88933 L0.76118 14.98215 L1.01622 15.05818 L1.27143 15.11413 L1.2914 15.7065 L1.29299 15.73455 L1.04227 15.80808 L0.79312 15.90162 L0.54562 16.01188 L0.2999 16.13709 L0.05616 16.27611 L0.10753 16.76281 L0.37493 16.84788 L0.64137 16.91903 L0.90644 16.97518 L1.16963 17.01465 L1.43017 17.03421 L1.52687 17.58625 L1.53231 17.61381 L1.29414 17.72125 L1.0603 17.8483 L0.83039 17.99168 L0.60431 18.14961 L0.3821 18.32096 L0.50018 18.7959 L0.77677 18.84324 L1.05048 18.87691 L1.32077 18.89593 L1.58688 18.89868 L1.84763 18.88208 L2.0281 19.43995 L2.03734 19.46648 L1.81656 19.6062 L1.6028 19.76472 L1.39522 19.93886 L1.19347 20.12689 L0.99742 20.32764 L1.18081 20.78139 L1.4613 20.78955 L1.73703 20.78459 L2.00732 20.76559 L2.2712 20.73107 L2.52706 20.67814 L2.78215 21.20201 L2.79501 21.22699 L2.59591 21.39617 L2.40639 21.583 L2.22516 21.78443 L2.05166 21.9988 L1.88558 22.22497 L2.13055 22.64865 L2.40942 22.61755 L2.68176 22.57412 L2.94675 22.51755 L3.20322 22.44651 L3.44917 22.35836 L3.77286 22.83851 L3.78907 22.86144 L3.6155 23.05674 L3.45388 23.26816 L3.30251 23.4929 L3.16059 23.72936 L3.02767 23.97648 L3.32932 24.36186 L3.60113 24.29218 L3.86475 24.21121 L4.11926 24.11825 L4.36332 24.01214 L4.59459 23.89056 L4.95948 24.29681 L4.97869 24.31731 L4.83352 24.53454 L4.7024 24.76612 L4.58325 25.00948 L4.47507 25.26316 L4.37726 25.52616 L4.72888 25.86657 L4.98858 25.7603 L5.23862 25.64397 L5.47799 25.51701 L5.70521 25.37846 L5.91763 25.22633 L6.38268 25.61744 L6.40459 25.63502 L6.29162 25.87061 L6.19458 26.11841 L6.11107 26.37618 L6.03987 26.64261 L5.98026 26.9168 L6.3765 27.20404 L6.61856 27.0621 L6.84962 26.91155 L7.06862 26.752 L7.27394 26.58269 L7.46271 26.40204 L7.95141 26.70737 L7.97556 26.72172 L7.89649 26.97075 L7.83489 27.22965 L7.78808 27.49653 L7.75466 27.77028 L7.73381 28.0501 L8.16618 28.27938 L8.38612 28.10512 L8.59397 27.92387 L8.78863 27.73538 L8.96838 27.53914 L9.13015 27.33397 L9.63832 27.56058 L9.66421 27.57148 L9.6202 27.82902 L9.59487 28.09394 L9.58528 28.36472 L9.5899 28.64046 L9.6078 28.92049 L10.06764 29.08801 L10.26146 28.88511 L10.44236 28.67695 L10.60919 28.46344 L10.76019 28.2443 L10.89215 28.0188 L11.44477 28.17805 L11.47193 28.18523 L11.46419 28.44639 L11.47596 28.71226 L11.50413 28.98175 L11.54708 29.25416 L11.60377 29.52898 L12.08244 29.63088 L12.24615 29.40298 L12.39633 29.17168 L12.53182 28.93704 L12.65087 28.69902 L12.75017 28.45735 L13.33622 28.54016 L13.36412 28.54346 L13.3931 28.80312 L13.44207 29.0647 L13.50779 29.32757 L13.58855 29.59126 L13.68324 29.8554 L14.17148 29.88911 L14.30159 29.6405 L14.41781 29.3904 L14.51904 29.13907 L14.60349 28.8867 L14.66789 28.63348 L15.21955 28.63405 L15.24763 28.63348 L15.31203 28.8867 L15.39649 29.13907 L15.49771 29.3904 L15.61394 29.6405 L15.74404 29.88911 L16.23228 29.8554 L16.32698 29.59126 L16.40773 29.32757 L16.47345 29.0647 L16.52242 28.80312 L16.55141 28.54346 L17.13763 28.46185 L17.16536 28.45735 L17.26466 28.69902 L17.3837 28.93704 L17.5192 29.17168 L17.66938 29.40298 L17.83308 29.63088 L18.31176 29.52898 L18.36845 29.25416 L18.41139 28.98175 L18.43957 28.71226 L18.45134 28.44639 L18.44359 28.18523 L18.99654 28.02711 L19.02337 28.0188 L19.15534 28.2443 L19.30634 28.46344 L19.47316 28.67695 L19.65406 28.88511 L19.84789 29.08801 L20.30773 28.92049 L20.32563 28.64046 L20.33025 28.36472 L20.32066 28.09394 L20.29532 27.82902 L20.25131 27.57148 L20.75994 27.3459 L20.78537 27.33397 L20.94714 27.53914 L21.1269 27.73538 L21.32155 27.92387 L21.52941 28.10512 L21.74934 28.27938 L22.18172 28.0501 L22.16086 27.77028 L22.12745 27.49653 L22.08063 27.22965 L22.01904 26.97075 L21.93997 26.72172 L22.4293 26.4174 L22.45282 26.40204 L22.64158 26.58269 L22.84691 26.752 L23.06591 26.91155 L23.29697 27.0621 L23.53902 27.20404 L23.93527 26.9168 L23.87566 26.64261 L23.80446 26.37618 L23.72095 26.11841 L23.62391 25.87061 L23.51094 25.63502 L23.97678 25.24486 L23.99789 25.22633 L24.21032 25.37846 L24.43753 25.51701 L24.6769 25.64397 L24.92694 25.7603 L25.18664 25.86657 L25.53826 25.52616 L25.44045 25.26316 L25.33227 25.00948 L25.21313 24.76612 L25.08201 24.53454 L24.93684 24.31731 L25.30257 23.91181 L25.32094 23.89056 L25.5522 24.01214 L25.79626 24.11825 L26.05077 24.21121 L26.3144 24.29218 L26.58621 24.36186 L26.88786 23.97648 L26.75494 23.72936 L26.61301 23.4929 L26.46164 23.26816 L26.30002 23.05674 L26.12645 22.86144 L26.45112 22.38196 L26.46635 22.35836 L26.71231 22.44651 L26.96878 22.51755 L27.23376 22.57412 L27.5061 22.61755 L27.78498 22.64865 L28.02995 22.22497 L27.86387 21.9988 L27.69036 21.78443 L27.50914 21.583 L27.31962 21.39617 L27.12052 21.22699 L27.37669 20.70364 L27.38847 20.67814 L27.64433 20.73107 L27.90821 20.76559 L28.17849 20.78459 L28.45423 20.78955 L28.73471 20.78139 L28.9181 20.32764 L28.72206 20.12689 L28.52031 19.93886 L28.31273 19.76472 L28.09897 19.6062 L27.87818 19.46648 L28.0598 18.90897 L28.06789 18.88208 L28.32864 18.89868 L28.59476 18.89593 L28.86504 18.87691 L29.13876 18.84324 L29.41534 18.7959 L29.53342 18.32096 L29.31121 18.14961 L29.08514 17.99168 L28.85522 17.8483 L28.62138 17.72125 L28.38322 17.61381 L28.48105 17.06197 L28.48535 17.03421 L28.7459 17.01465 L29.00908 16.97518 L29.27415 16.91903 L29.5406 16.84788 L29.808 16.76281 L29.85937 16.27611 L29.61563 16.13709 L29.36991 16.01188 L29.1224 15.90162 L28.87326 15.80808 L28.62254 15.73455 L28.64373 15.14222 L28.64409 15.11413 L28.89931 15.05818 L29.15435 14.98215 L29.40891 14.88933 L29.66272 14.78148 L29.91553 14.65971 L29.89805 14.17062 L29.6372 14.0672 L29.37634 13.97773 L29.1158 13.90331 L28.85599 13.84568 L28.59744 13.80808 L28.53799 13.24032 L28.53445 13.21245 L28.77943 13.12161 L29.02144 13.01092 L29.26065 12.88366 L29.49703 12.74161 L29.73048 12.58592 L29.64528 12.10399 L29.3726 12.03779 L29.10184 11.9854 L28.8335 11.94788 L28.5682 11.92687 L28.30693 11.92553 L28.17304 11.38562 L28.1657 11.35851 L28.39583 11.23478 L28.62028 11.0918 L28.83967 10.9328 L29.05423 10.75953 L29.26401 10.57317 L29.11322 10.10757 L28.83402 10.07957 L28.55862 10.06499 L28.28767 10.06479 L28.02201 10.08054 L27.76304 10.11521 L27.54435 9.57143 L27.53329 9.54561 L27.74383 9.3909 L27.94607 9.21791 L28.14106 9.02977 L28.32926 8.82819 L28.51089 8.61431 L28.29643 8.17439 L28.01606 8.18573 L27.74134 8.20983 L27.47302 8.24755 L27.21218 8.30032 L26.96061 8.37089 L26.67435 7.8736 L26.6598 7.84957 L26.8468 7.66709 L27.02301 7.46766 L27.18995 7.25424 L27.3483 7.02845 L27.49842 6.79139 L27.22488 6.38557 L26.94881 6.43578 L26.6801 6.49784 L26.41964 6.5725 L26.16867 6.66102 L25.92935 6.76589 L25.5615 6.29454 L25.54371 6.27279 L25.70315 6.0658 L25.84954 5.84355 L25.98476 5.60875 L26.10975 5.36292 L26.225 5.10708 L25.89705 4.74381 L25.6308 4.83239 L25.37351 4.93167 L25.12614 5.04226 L24.89013 5.16523 L24.66797 5.30274 L24.26103 4.9097 L24.24041 4.89063 L24.36965 4.66356 L24.48385 4.42318 L24.58527 4.17192 L24.67501 3.91115 L24.75373 3.64181 L24.37864 3.32745 L24.12721 3.45205 L23.88615 3.58599 L23.65648 3.72976 L23.43977 3.88423 L23.23879 4.05117 L22.79256 3.72609 L22.76951 3.71003 L22.86631 3.46735 L22.94639 3.21356 L23.01229 2.95074 L23.06533 2.68011 L23.10628 2.40251 L22.69154 2.14269 L22.45963 2.30067 L22.23926 2.46648 L22.03154 2.64046 L21.83812 2.82325 L21.662 3.01624 L21.1304 2.73278 L21.10531 2.72014 L21.16689 2.46623 L21.21036 2.20367 L21.23852 1.93418 L21.25283 1.65878 L21.2542 1.37818 L20.80694 1.17949 L20.59965 1.36861 L20.40488 1.56386 L20.22379 1.76541 L20.05811 1.97367 L19.91098 2.18958 L19.37609 1.99464 L19.3495 1.9856 L19.37526 1.7256 L19.38188 1.45955 L19.37239 1.18877 L19.34836 0.91403 L19.31079 0.63596 L18.8403 0.50124 L18.66124 0.71728 L18.49544 0.93766 L18.34406 1.16238 L18.20887 1.39161 L18.09311 1.62585 L17.53091 1.50595 L17.50331 1.50069 L17.49266 1.23963 L17.4622 0.97526 L17.41513 0.70842 L17.35312 0.4397 L17.27722 0.16956 L16.79256 0.1016 L16.6453 0.34045 L16.51178 0.58176 L16.39313 0.82535 z"/>
</svg>