<?xml version="1.0" encoding="UTF-8"?>
<!-- Generated by jsxcad -->
<!DOCTYPE svg PUBLIC "-//W3C//DTD SVG 1.1 Tiny//EN" "http://www.w3.org/Graphics/SVG/1.1/DTD/svg11-tiny.dtd">
<svg baseProfile="tiny" height="21.16865136791935mm" width="29.89845147033367mm" viewBox="-14.939888169893413 -10.584325683959674 29.89845147033367 21.16865136791935" version="1.1" stroke="black" stroke-width=".1" fill="none" xmlns="http://www.w3.org/2000/svg">
<path fill="#000000" stroke="#000000" d="M13.878066120453925 -0.9435160070166416 L13.63000503444388 -0.8854601789891742 L13.670348581998242 -0.48223698439072055 L13.671718445699241 -0.46238314050036095 L13.928768967590527 -0.4292638812870046 L14.186356146354415 -0.3819445255029062 L14.444069729689184 -0.3227376531044753 L14.701573886735794 -0.25287924934805966 L14.95856330044025 -0.1731540114872217 L14.95856330044025 0.1731540114872217 L14.701573886735794 0.25287924934805966 L14.444069729689184 0.3227376531044753 L14.186356146354415 0.3819445255029062 L13.928768967590527 0.4292638812870046 L13.671718445699241 0.46238314050036095 L13.632544469596995 0.8656640750092471 L13.63000503444388 0.8854601789891742 L13.878066120453925 0.9435160070166416 L14.123872102060238 1.0156870945522236 L14.367470511569055 1.0996429547215418 L14.608771315709292 1.19412657802327 L14.847626140701314 1.2983308691981046 L14.779668232614144 1.6412839167077795 L14.509523572981623 1.6949853711346046 L14.240805379311569 1.7388650017745393 L13.973969996208998 1.772175713416968 L13.709592545172091 1.7937264930963925 L13.448533114196167 1.8012674755668536 L13.32978736029318 2.1992619561065085 L13.323380668438487 2.218615571057782 L13.557615668892508 2.3005264960044616 L13.78684240789989 2.3961934233531266 L14.0115661335921 2.503313207589378 L14.231944818600365 2.620632199595825 L14.447990208389555 2.747336546269212 L14.313267933416782 3.0802647241060974 L14.035192416083305 3.106850375975885 L13.760460482200264 3.1238501379472132 L13.489670919077959 3.1305691032364695 L13.22362741096009 3.1258844567041955 L12.9636240098302 3.1076528801393692 L12.769783965684683 3.4864265043077864 L12.759645231592545 3.5049641408873207 L12.975558272188739 3.6090752235548043 L13.183814815932196 3.726317714921531 L13.38536672288133 3.85446033034704 L13.580616197232255 3.9922770472118563 L13.769734414413037 4.13896303360643 L13.571049122419758 4.455448397308909 L13.290450309279565 4.45448165058968 L13.015041921893278 4.444349889624112 L12.745553184434394 4.424423701780973 L12.483000122001325 4.393670015362335 L12.229084440687261 4.350093255334378 L11.946718651710547 4.7266713130289135 L11.93298451283999 4.7440110371359765 L12.125974616601166 4.868640394978123 L12.30876611444481 5.005505213623371 L12.482746314464569 5.152491585116879 L12.648557895195204 5.3084259178162725 L12.806530822466428 5.47252852648639 L12.546718764611214 5.766007036558947 L12.269120667043836 5.737030630404246 L11.998488785111144 5.69949921586071 L11.73567056612269 5.6528624958035465 L11.481877887901792 5.596199192063053 L11.23919339463756 5.527703623817575 L10.9150243774731 5.84393004938926 L10.898051975275374 5.859769137642436 L11.06499754027239 6.001988635918514 L11.219464294751644 6.155335344345149 L11.363237052837487 6.317850377323245 L11.497180389722887 6.488433803053121 L11.621772611069675 6.666345436716716 L11.307412010043118 6.93176399447085 L11.038078852718838 6.876058929791023 L10.777307788291917 6.812557728797257 L10.526045126667531 6.740797755699967 L10.285670220267832 6.659984366358449 L10.058596737110323 6.568531615781677 L9.666396329488977 6.857057410784277 L9.646488137772925 6.871081039389136 L9.7839972864199 7.02828742341475 L9.90697053586435 7.195291209412593 L10.017558808172549 7.3703272497222025 L10.116833576925107 7.552390915196393 L10.205413374271462 7.740796013227525 L9.842145688174234 7.972858090478442 L9.586306683648637 7.891301249374205 L9.34047278831811 7.8028622487282 L9.10567172213641 7.707175625035046 L8.883425041278741 7.603589532356097 L8.67643349048379 7.49076978438962 L8.20583986359345 7.751753374491128 L8.183339820629882 7.763654018821055 L8.288201623420607 7.932993652968724 L8.376723016516065 8.110585000645015 L8.45138469205531 8.294894775859728 L8.513447332468974 8.485035098737976 L8.563659834017196 8.680388231042663 L8.157839296467879 8.87394924317799 L7.9207749939879735 8.767717336541311 L7.694985422149114 8.655668553218575 L7.48156077729155 8.53754345399477 L7.28213715192406 8.4128482669127 L7.099653840617538 8.28053114976853 L6.6029590681483565 8.483813416721066 L6.578339174002078 8.493384728111199 L6.648908172931009 8.671396630732987 L6.701674072445005 8.85597239232907 L6.739394750000383 9.045837691022191 L6.763493105472348 9.240237307485106 L6.774832142586371 9.43863318634879 L6.334919963417443 9.590386140236467 L6.12103232335228 9.4618618181497 L5.919452878266542 9.328686420709259 L5.731312213124031 9.190710291084425 L5.5583275514741715 9.04760542556879 L5.403616317734334 8.89861939057219 L4.860288358821075 9.054157254834797 L4.834017940721452 9.061196563300449 L4.868690129693428 9.24444464907343 L4.88443635875527 9.432429171635217 L4.884239372081224 9.6241614287111 L4.8696574168297015 9.819034525334098 L4.8416514079228765 10.016601153610404 L4.376057869105168 10.12330146339172 L4.189690816077759 9.974862819526956 L4.016430623511029 9.823037604137642 L3.857426347646909 9.667789581945117 L3.7144431800650572 9.508964013758396 L3.590716669060782 9.34612455258175 L3.051082808533925 9.441646416926583 L3.0236923483006493 9.44605748202677 L3.0223552440489363 9.630938278966156 L3.0013504715440704 9.818665244582448 L2.9638248324974703 10.008549894167391 L2.9114398775364774 10.200143034462062 L2.8452344495307087 10.393095303232727 L2.3633062231943627 10.45338717039688 L2.2076176150960225 10.288195063862425 L2.0655702474798265 10.120926474661927 L1.9383092739794585 9.951657535075213 L1.8276131808298666 9.78040707086206 L1.7367716187418483 9.607058331193052 L1.1691336400864794 9.649948445899023 L1.141142995474328 9.651626002742825 L1.1035461667098372 9.834585093214809 L1.0459137239422873 10.01843067224977 L0.9714970730352399 10.202790058756612 L0.8820298039000962 10.387381637294148 L0.7786092425380695 10.571961482948145 L0.28951896253002607 10.584325683959666 L0.1677478660485227 10.40543868283255 L0.059893306132875246 10.225835399622216 L-0.032925589806683586 10.0457037273064 L-0.10895125158701979 9.865237024808144 L-0.16490297895005962 9.684642841592707 L-0.7572771145392485 9.670510689403883 L-0.7853233396932476 9.669390563826965 L-0.8588520754743328 9.846801627799271 L-0.9523938431835429 10.023099721885808 L-1.0626554969985844 10.198238906608267 L-1.1878647405425866 10.372112600507172 L-1.3268867169562197 10.544588322058594 L-1.8135851361748823 10.508235546166253 L-1.898653534020729 10.319021929373326 L-1.9698011313339516 10.130481830265891 L-2.0259571709682125 9.942912473437685 L-2.0654198624728495 9.756679928965537 L-2.084982190343057 9.572315650351753 L-2.637022770304669 9.503893224351412 L-2.664581788494739 9.500043580168615 L-2.772024318741215 9.668571229411574 L-2.899071015310443 9.834041202240467 L-3.0424513112876 9.996729754980159 L-3.200389088888902 10.156704488710268 L-3.371734510343267 10.313945071699361 L-3.846677652692323 10.230387780969378 L-3.8940101276893877 10.034674945323598 L-3.927686564015838 9.840989303584646 L-3.946704457858531 9.64972985140279 L-3.9494497501494124 9.461425425392896 L-3.932849845539855 9.276915729028516 L-4.490727798830674 9.149214599446672 L-4.517254222602341 9.142673650342878 L-4.65697035518288 9.29890262361303 L-4.815492980525094 9.450162596607036 L-4.989638356187263 9.59705099367396 L-5.1776612139607 9.739810640928232 L-5.378419010998124 9.878535276062921 L-5.832162258030701 9.748766321729004 L-5.84032129743683 9.550292214651023 L-5.835359627103961 9.355177719079677 L-5.8163635217241625 9.163917182698539 L-5.781839398966747 8.977194079124331 L-5.728910976851067 8.796144129432571 L-6.2527852690347405 8.615636610027181 L-6.277760421473019 8.60653782836783 L-6.446946878189502 8.747425113916062 L-6.633774550824586 8.88153321894322 L-6.835208844052499 9.009768402361377 L-7.049569535044947 9.132543617747809 L-7.275743786638882 9.250064616540415 L-7.699421692825162 9.076718425240221 L-7.668321303840385 8.879383703306134 L-7.624892039609701 8.68667254986389 L-7.56832671888871 8.499164781647302 L-7.497281322439413 8.317684802128182 L-7.409131962567729 8.143641499032286 L-7.889280423626058 7.914598481761086 L-7.9122188769453246 7.903124568686797 L-8.107512345828532 8.025944173714663 L-8.31893900186856 8.14031036301213 L-8.543672452286005 8.247419931274393 L-8.7801302508571 8.347847566259231 L-9.027250969559269 8.441906800179233 L-9.412635776998318 8.228454458707205 L-9.34295764352496 8.036115441664386 L-9.261982049775048 7.849571177181735 L-9.169023941565147 7.669475453784319 L-9.062914861828226 7.496777221224839 L-8.941334148571272 7.333130474127373 L-9.347582269942325 7.074924020035964 L-9.368082306186803 7.061334049591434 L-9.585318448639711 7.164057736614827 L-9.81689850558579 7.256843350033711 L-10.060254517304706 7.341150464383918 L-10.313930259219568 7.417701792868123 L-10.576935034793477 7.486910834648556 L-10.917347350154762 7.238102099194438 L-10.811078491813355 7.054334142806371 L-10.694740953997336 6.877401766547483 L-10.567782756832877 6.708019019671523 L-10.42923023835106 6.547239202860973 L-10.277104939216393 6.396925737620626 L-10.668213913199686 6.067851930469344 L-10.685790311386727 6.052346187400264 L-10.921381154877587 6.132286398074583 L-11.169184427543001 6.200952382824293 L-11.42694985547014 6.260046140147211 L-11.693380375362286 6.310428911803494 L-11.967577939285402 6.3526092269918255 L-12.254814715095701 6.072221039190311 L-12.112869474275977 5.900941693758056 L-11.962323665837529 5.737437250453911 L-11.802773641570226 5.582469839875106 L-11.633466148887639 5.4371796504518715 L-11.452815235185076 5.303609443034182 L-11.758142914829168 4.957793015678032 L-11.772497463471627 4.940706755877787 L-12.021521867871492 4.996659500362653 L-12.280421619941597 5.040244719026612 L-12.547303220232815 5.073369518695889 L-12.821051682149204 5.097014532679911 L-13.100877754114055 5.111771808061177 L-13.330152221252536 4.80581736738043 L-13.155890907915186 4.6501896013397435 L-12.974642458899618 4.503108296942541 L-12.786157102527293 4.365367927737614 L-12.589913248461237 4.23817178427931 L-12.38474229246227 4.1236989723622735 L-12.611358744769246 3.764115158190112 L-12.622249418584886 3.745792325583556 L-12.879793600387382 3.7769321004355136 L-13.144710788543664 3.7948594828556605 L-13.41549688713246 3.8016480022101207 L-13.691238488793573 3.7983776475106095 L-13.971269150529103 3.785711769324003 L-14.138782689224385 3.4603216806231836 L-13.935880224535435 3.323168319876671 L-13.727721396847215 3.195161137315805 L-13.514213513330402 3.0771113812394613 L-13.295074258171995 2.9702617194934926 L-13.069570479373418 2.8768844105493203 L-13.22882375212182 2.4858408440628206 L-13.236005688673727 2.4666239870574493 L-13.497167741528028 2.472104157670187 L-13.763033141495155 2.4637745371118984 L-14.032520139373947 2.4438365725527254 L-14.304936569864527 2.4134496782286816 L-14.579752906528228 2.3733363674858348 L-14.681655851045303 2.034618657343708 L-14.453758649667957 1.9187762973122031 L-14.222454619524896 1.812508670315478 L-13.987811484524164 1.7166282598267615 L-13.749794019731247 1.632393441947115 L-13.508122996885886 1.5621265560512638 L-13.590933469313837 1.1474256274771728 L-13.594232777003592 1.1276857136571568 L-13.853896764223622 1.1071745417132066 L-14.115478460156016 1.0725231609216974 L-14.378343465916986 1.0260186612381177 L-14.642036429780187 0.9688777226759657 L-14.906176372552698 0.9018682965240179 L-14.939888169893406 0.5563828579271859 L-14.691270137578641 0.4643205505800746 L-14.441178085006802 0.3820765505308511 L-14.189840216655643 0.31044857321993663 L-13.937471247120895 0.2506860374826035 L-13.684255333180166 0.2051160271481229 L-13.684821421133963 -0.18524257073559292 L-13.684255333180166 -0.2051160271481229 L-13.937471247120895 -0.2506860374826035 L-14.189840216655643 -0.31044857321993663 L-14.441178085006802 -0.3820765505308511 L-14.691270137578641 -0.4643205505800746 L-14.939888169893406 -0.5563828579271859 L-14.906176372552698 -0.9018682965240179 L-14.642036429780187 -0.9688777226759657 L-14.378343465916986 -1.0260186612381177 L-14.115478460156016 -1.0725231609216974 L-13.853896764223622 -1.1071745417132066 L-13.594232777003592 -1.1276857136571568 L-13.512625254855564 -1.5425060307615208 L-13.508122996885886 -1.5621265560512638 L-13.749794019731247 -1.632393441947115 L-13.987811484524164 -1.7166282598267615 L-14.222454619524896 -1.812508670315478 L-14.453758649667957 -1.9187762973122031 L-14.681655851045303 -2.034618657343708 L-14.579752906528228 -2.3733363674858348 L-14.304936569864527 -2.4134496782286816 L-14.032520139373947 -2.4438365725527254 L-13.763033141495155 -2.4637745371118984 L-13.497167741528028 -2.472104157670187 L-13.236005688673727 -2.4666239870574493 L-13.077886912677114 -2.8578980063149317 L-13.069570479373418 -2.8768844105493203 L-13.295074258171995 -2.9702617194934926 L-13.514213513330402 -3.0771113812394613 L-13.727721396847215 -3.195161137315805 L-13.935880224535435 -3.323168319876671 L-14.138782689224385 -3.4603216806231836 L-13.971269150529103 -3.785711769324003 L-13.691238488793573 -3.7983776475106095 L-13.41549688713246 -3.8016480022101207 L-13.144710788543664 -3.7948594828556605 L-12.879793600387382 -3.7769321004355136 L-12.622249418584886 -3.745792325583556 L-12.39667636075404 -4.105704487277286 L-12.38474229246227 -4.1236989723622735 L-12.589913248461237 -4.23817178427931 L-12.786157102527293 -4.365367927737614 L-12.974642458899618 -4.503108296942541 L-13.155890907915186 -4.6501896013397435 L-13.330152221252536 -4.80581736738043 L-13.100877754114055 -5.111771808061177 L-12.821051682149204 -5.097014532679911 L-12.547303220232815 -5.073369518695889 L-12.280421619941597 -5.040244719026612 L-12.021521867871492 -4.996659500362653 L-11.772497463471627 -4.940706755877787 L-11.468173413895947 -5.286965868501555 L-11.452815235185076 -5.303609443034182 L-11.633466148887639 -5.4371796504518715 L-11.802773641570226 -5.582469839875106 L-11.962323665837529 -5.737437250453911 L-12.112869474275977 -5.900941693758056 L-12.254814715095701 -6.072221039190311 L-11.967577939285402 -6.3526092269918255 L-11.693380375362286 -6.310428911803494 L-11.42694985547014 -6.260046140147211 L-11.169184427543001 -6.200952382824293 L-10.921381154877587 -6.132286398074583 L-10.685790311386727 -6.052346187400264 L-10.29563658874974 -6.381987291369317 L-10.277104939216393 -6.396925737620626 L-10.42923023835106 -6.547239202860973 L-10.567782756832877 -6.708019019671523 L-10.694740953997336 -6.877401766547483 L-10.811078491813355 -7.054334142806371 L-10.917347350154762 -7.238102099194438 L-10.576935034793477 -7.486910834648556 L-10.313930259219568 -7.417701792868123 L-10.060254517304706 -7.341150464383918 L-9.81689850558579 -7.256843350033711 L-9.585318448639711 -7.164057736614827 L-9.368082306186803 -7.061334049591434 L-8.962583928252752 -7.3201299356471266 L-8.941334148571272 -7.333130474127373 L-9.062914861828226 -7.496777221224839 L-9.169023941565147 -7.669475453784319 L-9.261982049775048 -7.849571177181735 L-9.34295764352496 -8.036115441664386 L-9.412635776998318 -8.228454458707205 L-9.027250969559269 -8.441906800179233 L-8.7801302508571 -8.347847566259231 L-8.543672452286005 -8.247419931274393 L-8.31893900186856 -8.14031036301213 L-8.107512345828532 -8.025944173714663 L-7.9122188769453246 -7.903124568686797 L-7.432735730923541 -8.132864401458448 L-7.409131962567729 -8.143641499032286 L-7.497281322439413 -8.317684802128182 L-7.56832671888871 -8.499164781647302 L-7.624892039609701 -8.68667254986389 L-7.668321303840385 -8.879383703306134 L-7.699421692825162 -9.076718425240221 L-7.275743786638882 -9.250064616540415 L-7.049569535044947 -9.132543617747809 L-6.835208844052499 -9.009768402361377 L-6.633774550824586 -8.88153321894322 L-6.446946878189502 -8.747425113916062 L-6.277760421473019 -8.60653782836783 L-5.754410766711501 -8.787805766535262 L-5.728910976851067 -8.796144129432571 L-5.781839398966747 -8.977194079124331 L-5.8163635217241625 -9.163917182698539 L-5.835359627103961 -9.355177719079677 L-5.84032129743683 -9.550292214651023 L-5.832162258030701 -9.748766321729004 L-5.378419010998124 -9.878535276062921 L-5.1776612139607 -9.739810640928232 L-4.989638356187263 -9.59705099367396 L-4.815492980525094 -9.450162596607036 L-4.65697035518288 -9.29890262361303 L-4.517254222602341 -9.142673650342878 L-3.9597478215828694 -9.271184691875627 L-3.932849845539855 -9.276915729028516 L-3.9494497501494124 -9.461425425392896 L-3.946704457858531 -9.64972985140279 L-3.927686564015838 -9.840989303584646 L-3.8940101276893877 -10.034674945323598 L-3.846677652692323 -10.230387780969378 L-3.371734510343267 -10.313945071699361 L-3.200389088888902 -10.156704488710268 L-3.0424513112876 -9.996729754980159 L-2.899071015310443 -9.834041202240467 L-2.772024318741215 -9.668571229411574 L-2.664581788494739 -9.500043580168615 L-2.112740819802924 -9.569267565609147 L-2.084982190343057 -9.572315650351753 L-2.0654198624728495 -9.756679928965537 L-2.0259571709682125 -9.942912473437685 L-1.9698011313339516 -10.130481830265891 L-1.898653534020729 -10.319021929373326 L-1.8135851361748823 -10.508235546166253 L-1.3268867169562197 -10.544588322058594 L-1.1878647405425866 -10.372112600507172 L-1.0626554969985844 -10.198238906608267 L-0.9523938431835429 -10.023099721885808 L-0.8588520754743328 -9.846801627799271 L-0.7853233396932476 -9.669390563826965 L-0.1929914397780298 -9.684382964389147 L-0.16490297895005962 -9.684642841592707 L-0.10895125158701979 -9.865237024808144 L-0.032925589806683586 -10.0457037273064 L0.059893306132875246 -10.225835399622216 L0.1677478660485227 -10.40543868283255 L0.28951896253002607 -10.584325683959666 L0.7786092425380695 -10.571961482948145 L0.8820298039000962 -10.387381637294148 L0.9714970730352399 -10.202790058756612 L1.0459137239422873 -10.01843067224977 L1.1035461667098372 -9.834585093214809 L1.141142995474328 -9.651626002742825 L1.7089041748130498 -9.609560333299651 L1.7367716187418483 -9.607058331193052 L1.8276131808298666 -9.78040707086206 L1.9383092739794585 -9.951657535075213 L2.0655702474798265 -10.120926474661927 L2.2076176150960225 -10.288195063862425 L2.3633062231943627 -10.45338717039688 L2.8452344495307087 -10.393095303232727 L2.9114398775364774 -10.200143034462062 L2.9638248324974703 -10.008549894167391 L3.0013504715440704 -9.818665244582448 L3.0223552440489363 -9.630938278966156 L3.0236923483006493 -9.44605748202677 L3.5636021187345985 -9.351319504675565 L3.590716669060782 -9.34612455258175 L3.7144431800650572 -9.508964013758396 L3.857426347646909 -9.667789581945117 L4.016430623511029 -9.823037604137642 L4.189690816077759 -9.974862819526956 L4.376057869105168 -10.12330146339172 L4.8416514079228765 -10.016601153610404 L4.8696574168297015 -9.819034525334098 L4.884239372081224 -9.6241614287111 L4.88443635875527 -9.432429171635217 L4.868690129693428 -9.24444464907343 L4.834017940721452 -9.061196563300449 L5.37779586888381 -8.906448077198327 L5.403616317734334 -8.89861939057219 L5.5583275514741715 -9.04760542556879 L5.731312213124031 -9.190710291084425 L5.919452878266542 -9.328686420709259 L6.12103232335228 -9.4618618181497 L6.334919963417443 -9.590386140236467 L6.774832142586371 -9.43863318634879 L6.763493105472348 -9.240237307485106 L6.739394750000383 -9.045837691022191 L6.701674072445005 -8.85597239232907 L6.648908172931009 -8.671396630732987 L6.578339174002078 -8.493384728111199 L7.0756224891836945 -8.290824216604678 L7.099653840617538 -8.28053114976853 L7.28213715192406 -8.4128482669127 L7.48156077729155 -8.53754345399477 L7.694985422149114 -8.655668553218575 L7.9207749939879735 -8.767717336541311 L8.157839296467879 -8.87394924317799 L8.563659834017196 -8.680388231042663 L8.513447332468974 -8.485035098737976 L8.45138469205531 -8.294894775859728 L8.376723016516065 -8.110585000645015 L8.288201623420607 -7.932993652968724 L8.183339820629882 -7.763654018821055 L8.654689398962274 -7.503354400173902 L8.67643349048379 -7.49076978438962 L8.883425041278741 -7.603589532356097 L9.10567172213641 -7.707175625035046 L9.34047278831811 -7.8028622487282 L9.586306683648637 -7.891301249374205 L9.842145688174234 -7.972858090478442 L10.205413374271462 -7.740796013227525 L10.116833576925107 -7.552390915196393 L10.017558808172549 -7.3703272497222025 L9.90697053586435 -7.195291209412593 L9.7839972864199 -7.02828742341475 L9.646488137772925 -6.871081039389136 L10.039524543838072 -6.583125426922482 L10.058596737110323 -6.568531615781677 L10.285670220267832 -6.659984366358449 L10.526045126667531 -6.740797755699967 L10.777307788291917 -6.812557728797257 L11.038078852718838 -6.876058929791023 L11.307412010043118 -6.93176399447085 L11.621772611069675 -6.666345436716716 L11.497180389722887 -6.488433803053121 L11.363237052837487 -6.317850377323245 L11.219464294751644 -6.155335344345149 L11.06499754027239 -6.001988635918514 L10.898051975275374 -5.859769137642436 L11.223137475552278 -5.544014154036764 L11.23919339463756 -5.527703623817575 L11.481877887901792 -5.596199192063053 L11.73567056612269 -5.6528624958035465 L11.998488785111144 -5.69949921586071 L12.269120667043836 -5.737030630404246 L12.546718764611214 -5.766007036558947 L12.806530822466428 -5.47252852648639 L12.648557895195204 -5.3084259178162725 L12.482746314464569 -5.152491585116879 L12.30876611444481 -5.005505213623371 L12.125974616601166 -4.868640394978123 L11.93298451283999 -4.7440110371359765 L12.216441913538818 -4.367843839573777 L12.229084440687261 -4.350093255334378 L12.483000122001325 -4.393670015362335 L12.745553184434394 -4.424423701780973 L13.015041921893278 -4.444349889624112 L13.290450309279565 -4.45448165058968 L13.571049122419758 -4.455448397308909 L13.769734414413037 -4.13896303360643 L13.580616197232255 -3.9922770472118563 L13.38536672288133 -3.85446033034704 L13.183814815932196 -3.726317714921531 L12.975558272188739 -3.6090752235548043 L12.759645231592545 -3.5049641408873207 L12.954583441798219 -3.126472819544145 L12.9636240098302 -3.1076528801393692 L13.22362741096009 -3.1258844567041955 L13.489670919077959 -3.1305691032364695 L13.760460482200264 -3.1238501379472132 L14.035192416083305 -3.106850375975885 L14.313267933416782 -3.0802647241060974 L14.447990208389555 -2.747336546269212 L14.231944818600365 -2.620632199595825 L14.0115661335921 -2.503313207589378 L13.78684240789989 -2.3961934233531266 L13.557615668892508 -2.3005264960044616 L13.323380668438487 -2.218615571057782 L13.443280493671859 -1.8207943777852706 L13.448533114196167 -1.8012674755668536 L13.709592545172091 -1.7937264930963925 L13.973969996208998 -1.772175713416968 L14.240805379311569 -1.7388650017745393 L14.509523572981623 -1.6949853711346046 L14.779668232614144 -1.6412839167077795 L14.847626140701314 -1.2983308691981046 L14.608771315709292 -1.19412657802327 L14.367470511569055 -1.0996429547215418 L14.123872102060238 -1.0156870945522236 z"/>
</svg>