<?xml version="1.0" encoding="UTF-8"?>
<!-- Generated by jsxcad -->
<!DOCTYPE svg PUBLIC "-//W3C//DTD SVG 1.1 Tiny//EN" "http://www.w3.org/Graphics/SVG/1.1/DTD/svg11-tiny.dtd">
<svg baseProfile="tiny" height="19.86625mm" width="17.33924mm" viewBox="-0.00062 2.68495 17.33924 19.86625" version="1.1" stroke="black" stroke-width=".1" fill="none" xmlns="http://www.w3.org/2000/svg">
<path fill="#000000" stroke="#000000" d="M15.70734 12.98386 L15.85972 13.02042 L16.06816 13.10845 L16.26854 13.22775 L16.46259 13.36882 L16.65052 13.52848 L16.83218 13.70496 L16.69101 14.14087 L16.44037 14.17734 L16.19453 14.19652 L15.95462 14.19705 L15.72234 14.17622 L15.50188 14.12535 L15.35699 14.06563 L15.05693 14.70440 L15.19540 14.77778 L15.37531 14.91499 L15.53963 15.08046 L15.69240 15.26545 L15.83460 15.46692 L15.96654 15.68310 L15.72117 16.07006 L15.46936 16.04292 L15.22649 16.00021 L14.99402 15.94093 L14.77427 15.86286 L14.57344 15.75864 L14.44801 15.66470 L13.99427 16.21284 L14.10998 16.31852 L14.24987 16.49634 L14.36761 16.69765 L14.46927 16.91495 L14.55658 17.14557 L14.63028 17.38789 L14.29596 17.70121 L14.05893 17.61196 L13.83445 17.50989 L13.62419 17.39436 L13.43093 17.26384 L13.26254 17.11272 L13.16459 16.99040 L12.60722 17.39523 L12.69325 17.52621 L12.78488 17.73309 L12.84924 17.95724 L12.89407 18.19292 L12.92171 18.43796 L12.93327 18.69097 L12.53191 18.91200 L12.32427 18.76697 L12.13196 18.61261 L11.95675 18.44873 L11.80173 18.27451 L11.67589 18.08647 L11.61118 17.94375 L10.95999 18.20217 L11.01076 18.35042 L11.04809 18.57358 L11.05471 18.80669 L11.03955 19.04612 L11.00541 19.29034 L10.95372 19.53828 L10.51002 19.65261 L10.34495 19.46052 L10.19704 19.26320 L10.06807 19.06091 L9.96122 18.85363 L9.88606 18.64021 L9.85887 18.48588 L9.15678 18.57488 L9.16895 18.73112 L9.14942 18.95653 L9.09767 19.18392 L9.02325 19.41200 L8.92925 19.63997 L8.81733 19.86717 L8.35914 19.86717 L8.24722 19.63997 L8.15322 19.41200 L8.07880 19.18392 L8.02705 18.95653 L8.00752 18.73112 L8.01969 18.57488 L7.31761 18.48588 L7.29041 18.64021 L7.21525 18.85363 L7.10840 19.06091 L6.97943 19.26320 L6.83152 19.46052 L6.66645 19.65261 L6.22275 19.53828 L6.17106 19.29034 L6.13692 19.04612 L6.12176 18.80669 L6.12838 18.57358 L6.16571 18.35042 L6.21648 18.20217 L5.56529 17.94375 L5.50058 18.08647 L5.37474 18.27451 L5.21972 18.44873 L5.04451 18.61261 L4.85220 18.76697 L4.64456 18.91200 L4.24320 18.69097 L4.25476 18.43796 L4.28240 18.19292 L4.32724 17.95724 L4.39159 17.73309 L4.48322 17.52621 L4.56925 17.39523 L4.01189 16.99040 L3.91393 17.11272 L3.74554 17.26384 L3.55228 17.39436 L3.34202 17.50989 L3.11754 17.61196 L2.88052 17.70121 L2.54619 17.38789 L2.61989 17.14557 L2.70720 16.91495 L2.80887 16.69765 L2.92660 16.49634 L3.06649 16.31852 L3.18220 16.21284 L2.72846 15.66470 L2.60303 15.75864 L2.40220 15.86286 L2.18245 15.94093 L1.94998 16.00021 L1.70711 16.04292 L1.45530 16.07006 L1.20993 15.68310 L1.34188 15.46692 L1.48407 15.26545 L1.63684 15.08046 L1.80116 14.91499 L1.98107 14.77778 L2.11954 14.70440 L1.81948 14.06563 L1.67459 14.12535 L1.45413 14.17622 L1.22185 14.19705 L0.98194 14.19652 L0.73610 14.17734 L0.48547 14.14087 L0.34429 13.70496 L0.52596 13.52848 L0.71388 13.36882 L0.90793 13.22775 L1.10832 13.10845 L1.31675 13.02042 L1.46913 12.98386 L1.33896 12.29904 L1.18379 12.32094 L0.95759 12.31553 L0.72742 12.27807 L0.49514 12.21804 L0.26174 12.13846 L0.02799 12.04095 L-0.00062 11.58364 L0.21915 11.45776 L0.44082 11.34971 L0.66380 11.26120 L0.88751 11.19535 L1.11127 11.16178 L1.26796 11.16417 L1.31167 10.46935 L1.15591 10.45209 L0.93813 10.39075 L0.72443 10.29738 L0.51429 10.18162 L0.30792 10.04665 L0.10565 9.89422 L0.19134 9.44410 L0.43547 9.37665 L0.67700 9.32695 L0.91497 9.29649 L1.14803 9.28818 L1.37312 9.31115 L1.52432 9.35232 L1.74356 8.67791 L1.59705 8.62230 L1.40148 8.50852 L1.21787 8.36475 L1.04329 8.20019 L0.87716 8.01796 L0.71937 7.81985 L0.91474 7.40539 L1.16797 7.40103 L1.41427 7.41321 L1.65230 7.44315 L1.88005 7.49329 L2.09227 7.57174 L2.22841 7.64937 L2.60168 7.06160 L2.47353 6.97139 L2.31229 6.81267 L2.17007 6.62785 L2.04176 6.42514 L1.92600 6.20740 L1.82227 5.97634 L2.11433 5.62328 L2.36073 5.68186 L2.59631 5.75475 L2.81948 5.84278 L3.02768 5.94784 L3.21382 6.07647 L3.32645 6.18543 L3.84402 5.69990 L3.74247 5.58055 L3.62598 5.38658 L3.53443 5.17210 L3.46082 4.94376 L3.40312 4.70401 L3.36039 4.45437 L3.73137 4.18545 L3.95533 4.30371 L4.16524 4.43313 L4.35935 4.57411 L4.53471 4.72784 L4.68282 4.89889 L4.76467 5.03253 L5.37627 4.69694 L5.30752 4.55612 L5.24282 4.33931 L5.20736 4.10882 L5.19272 3.86935 L5.19632 3.62278 L5.21688 3.37035 L5.64300 3.20191 L5.83060 3.37206 L6.00182 3.54952 L6.15488 3.73427 L6.28660 3.92671 L6.38762 4.12916 L6.43374 4.27893 L7.11529 4.10444 L7.08376 3.95093 L7.07507 3.72484 L7.09811 3.49278 L7.14355 3.25721 L7.20842 3.01930 L7.29118 2.77993 L7.74582 2.72288 L7.88516 2.93438 L8.00680 3.14888 L8.10904 3.36592 L8.18871 3.58509 L8.23615 3.80632 L8.24353 3.96285 L8.93294 3.96285 L8.94032 3.80632 L8.98777 3.58509 L9.06743 3.36592 L9.16967 3.14888 L9.29132 2.93438 L9.43066 2.72288 L9.88529 2.77993 L9.96805 3.01930 L10.03292 3.25721 L10.07836 3.49278 L10.10140 3.72484 L10.09271 3.95093 L10.06118 4.10444 L10.74273 4.27893 L10.78885 4.12916 L10.88987 3.92671 L11.02159 3.73427 L11.17465 3.54952 L11.34587 3.37206 L11.53347 3.20191 L11.95959 3.37035 L11.98015 3.62278 L11.98375 3.86935 L11.96912 4.10882 L11.93365 4.33931 L11.86895 4.55612 L11.80020 4.69694 L12.41181 5.03253 L12.49365 4.89889 L12.64176 4.72784 L12.81712 4.57411 L13.01123 4.43313 L13.22114 4.30371 L13.44510 4.18545 L13.81608 4.45437 L13.77335 4.70401 L13.71565 4.94376 L13.64204 5.17210 L13.55049 5.38658 L13.43400 5.58055 L13.33245 5.69990 L13.85002 6.18543 L13.96265 6.07647 L14.14879 5.94784 L14.35699 5.84278 L14.58016 5.75475 L14.81574 5.68186 L15.06214 5.62328 L15.35420 5.97634 L15.25047 6.20740 L15.13471 6.42514 L15.00640 6.62785 L14.86418 6.81267 L14.70294 6.97139 L14.57479 7.06160 L14.94807 7.64937 L15.08420 7.57174 L15.29642 7.49329 L15.52417 7.44315 L15.76221 7.41321 L16.00850 7.40103 L16.26173 7.40539 L16.45710 7.81985 L16.29931 8.01796 L16.13318 8.20019 L15.95860 8.36475 L15.77499 8.50852 L15.57942 8.62230 L15.43291 8.67791 L15.65215 9.35232 L15.80335 9.31115 L16.02844 9.28818 L16.26150 9.29649 L16.49947 9.32695 L16.74100 9.37665 L16.98513 9.44410 L17.07082 9.89422 L16.86856 10.04665 L16.66218 10.18162 L16.45204 10.29738 L16.23834 10.39075 L16.02056 10.45209 L15.86480 10.46935 L15.90851 11.16417 L16.06520 11.16178 L16.28896 11.19535 L16.51267 11.26120 L16.73566 11.34971 L16.95732 11.45776 L17.17709 11.58364 L17.14848 12.04095 L16.91473 12.13846 L16.68133 12.21804 L16.44905 12.27807 L16.21888 12.31553 L15.99268 12.32094 L15.83751 12.29904 z"/>
<path stroke="#000000" d="M 0.00000 2.68495 L 17.16667 2.68495 L 17.16667 19.85162 L 0.00000 19.85162 z"/>
<path stroke="#000000" d="M 0.46032 22.24433 L 0.61376 22.32105 L 0.84392 22.55121 L 0.84392 20.94010"/>
<path stroke="#000000" d="M 2.83862 22.55121 L 2.07143 20.94010 M 1.76455 22.55121 z"/>
<path stroke="#000000" d="M 3.45238 21.09353 L 3.37566 21.01682 L 3.45238 20.94010 L 3.52910 21.01682 z"/>
<path stroke="#000000" d="M 4.29630 22.24433 L 4.44974 22.32105 L 4.67989 22.55121 L 4.67989 20.94010"/>
<path stroke="#000000" d="M 6.67460 22.55121 L 5.90741 20.94010 M 5.60053 22.55121 z"/>
<path stroke="#000000" d=""/>
<path stroke="#000000" d="M 8.36243 22.01417 L 9.20635 20.94010 M 9.20635 22.01417 L 8.36243 20.94010"/>
<path stroke="#000000" d=""/>
<path stroke="#000000" d="M 11.12434 22.24433 L 11.27778 22.32105 L 11.50794 22.55121 L 11.50794 20.94010"/>
<path stroke="#000000" d="M 13.50265 22.55121 L 12.73545 20.94010 M 12.42857 22.55121 z"/>
<path stroke="#000000" d="M 14.11640 21.09353 L 14.03968 21.01682 L 14.11640 20.94010 L 14.19312 21.01682 z"/>
<path stroke="#000000" d="M 14.96032 22.24433 L 15.11376 22.32105 L 15.34392 22.55121 L 15.34392 20.94010"/>
<path stroke="#000000" d="M 16.64815 22.55121 L 16.41799 22.47449 L 16.34127 22.32105 L 16.34127 22.16761 L 16.41799 22.01417 L 16.57143 21.93745 L 16.87831 21.86073 L 17.10847 21.78401 L 17.26190 21.63057 L 17.33862 21.47713 L 17.33862 21.24697 L 17.26190 21.09353 L 17.18519 21.01682 L 16.95503 20.94010 L 16.64815 20.94010 L 16.41799 21.01682 L 16.34127 21.09353 L 16.26455 21.24697 L 16.26455 21.47713 L 16.34127 21.63057 L 16.49471 21.78401 L 16.72487 21.86073 L 17.03175 21.93745 L 17.18519 22.01417 L 17.26190 22.16761 L 17.26190 22.32105 L 17.18519 22.47449 L 16.95503 22.55121 z"/>
</svg>