<?xml version="1.0" encoding="UTF-8"?>
<!-- Generated by jsxcad -->
<!DOCTYPE svg PUBLIC "-//W3C//DTD SVG 1.1 Tiny//EN" "http://www.w3.org/Graphics/SVG/1.1/DTD/svg11-tiny.dtd">
<svg baseProfile="tiny" height="10.73945mm" width="10.79858mm" viewBox="0.00071 0.07519 10.79858 10.73945" version="1.1" stroke="black" stroke-width=".1" fill="none" xmlns="http://www.w3.org/2000/svg">
<path fill="#000000" stroke="#000000" d="M9.46074 6.20345 L9.80290 6.27053 L9.97726 6.34158 L10.14460 6.44405 L10.30583 6.56884 L10.46067 6.71295 L10.60854 6.87470 L10.47982 7.27214 L10.26520 7.31649 L10.05528 7.34248 L9.85150 7.34905 L9.65586 7.33396 L9.47295 7.28931 L9.15643 7.14306 L8.78049 7.79394 L9.06533 7.99503 L9.19541 8.13116 L9.30625 8.29308 L9.40237 8.47288 L9.48476 8.66770 L9.55359 8.87576 L9.27364 9.18586 L9.05965 9.13860 L8.85745 9.07649 L8.66878 8.99919 L8.49641 8.90544 L8.34774 8.78991 L8.11866 8.52705 L7.51923 8.96158 L7.69780 9.26105 L7.76135 9.43829 L7.79684 9.63127 L7.81162 9.83462 L7.80774 10.04611 L7.78610 10.26419 L7.40431 10.43379 L7.22798 10.30366 L7.06845 10.16476 L6.92747 10.01747 L6.80806 9.86177 L6.71914 9.69580 L6.61663 9.36254 L5.89383 9.51586 L5.93544 9.86205 L5.92156 10.04982 L5.87564 10.24059 L5.80660 10.43243 L5.71720 10.62413 L5.60888 10.81464 L5.19112 10.81464 L5.08280 10.62413 L4.99340 10.43243 L4.92436 10.24059 L4.87844 10.04982 L4.86456 9.86205 L4.90617 9.51586 L4.18337 9.36254 L4.08086 9.69580 L3.99194 9.86177 L3.87253 10.01747 L3.73155 10.16476 L3.57202 10.30366 L3.39569 10.43379 L3.01390 10.26419 L2.99226 10.04611 L2.98838 9.83462 L3.00316 9.63127 L3.03865 9.43829 L3.10220 9.26105 L3.28077 8.96158 L2.68134 8.52705 L2.45226 8.78991 L2.30359 8.90544 L2.13122 8.99919 L1.94255 9.07649 L1.74035 9.13860 L1.52636 9.18586 L1.24641 8.87576 L1.31524 8.66770 L1.39763 8.47288 L1.49375 8.29308 L1.60459 8.13116 L1.73467 7.99503 L2.01951 7.79394 L1.64357 7.14306 L1.32705 7.28931 L1.14414 7.33396 L0.94850 7.34905 L0.74472 7.34248 L0.53480 7.31649 L0.32018 7.27214 L0.19146 6.87470 L0.33933 6.71295 L0.49417 6.56884 L0.65540 6.44405 L0.82274 6.34158 L0.99710 6.27053 L1.33926 6.20345 L1.26240 5.46723 L0.91377 5.47227 L0.72849 5.43876 L0.54359 5.37307 L0.36006 5.28427 L0.17880 5.17524 L0.00071 5.04753 L0.04457 4.63207 L0.24540 4.54435 L0.44543 4.47556 L0.64345 4.42704 L0.83799 4.40140 L1.02618 4.40731 L1.36608 4.48503 L1.59610 3.77841 L1.27558 3.64115 L1.11997 3.53515 L0.97781 3.39990 L0.84629 3.24411 L0.72508 3.07075 L0.61437 2.88162 L0.82349 2.51996 L1.04264 2.52155 L1.25334 2.54011 L1.45398 2.57637 L1.64211 2.63211 L1.81162 2.71408 L2.09048 2.92339 L2.58886 2.37083 L2.35200 2.11497 L2.25303 1.95479 L2.17824 1.77339 L2.12155 1.57754 L2.08142 1.36986 L2.05730 1.15204 L2.39554 0.90684 L2.59506 0.99752 L2.77995 1.10026 L2.94845 1.21506 L3.09759 1.34257 L3.21903 1.48646 L3.38852 1.79116 L4.06154 1.49182 L3.94876 1.16189 L3.92323 0.97535 L3.92842 0.77920 L3.95601 0.57719 L4.00353 0.37107 L4.06980 0.16218 L4.47842 0.07519 L4.62403 0.23898 L4.75138 0.40786 L4.85886 0.58112 L4.94349 0.75815 L4.99616 0.93892 L5.02755 1.28617 L5.77245 1.28617 L5.80384 0.93892 L5.85651 0.75815 L5.94114 0.58112 L6.04862 0.40786 L6.17597 0.23898 L6.32158 0.07519 L6.73020 0.16218 L6.79647 0.37107 L6.84399 0.57719 L6.87158 0.77920 L6.87677 0.97535 L6.85124 1.16189 L6.73846 1.49182 L7.41148 1.79116 L7.58097 1.48646 L7.70241 1.34257 L7.85155 1.21506 L8.02005 1.10026 L8.20494 0.99752 L8.40446 0.90684 L8.74270 1.15204 L8.71858 1.36986 L8.67845 1.57754 L8.62176 1.77339 L8.54697 1.95479 L8.44800 2.11497 L8.21114 2.37083 L8.70952 2.92339 L8.98838 2.71408 L9.15789 2.63211 L9.34602 2.57637 L9.54666 2.54011 L9.75736 2.52155 L9.97651 2.51996 L10.18563 2.88162 L10.07492 3.07075 L9.95371 3.24411 L9.82219 3.39990 L9.68003 3.53515 L9.52442 3.64115 L9.20390 3.77841 L9.43392 4.48503 L9.77382 4.40731 L9.96201 4.40140 L10.15655 4.42704 L10.35457 4.47556 L10.55460 4.54435 L10.75543 4.63207 L10.79929 5.04753 L10.62120 5.17524 L10.43994 5.28427 L10.25641 5.37307 L10.07151 5.43876 L9.88623 5.47227 L9.53760 5.46723 z"/>
</svg>