<?xml version="1.0" encoding="UTF-8"?>
<!-- Generated by jsxcad -->
<!DOCTYPE svg PUBLIC "-//W3C//DTD SVG 1.1 Tiny//EN" "http://www.w3.org/Graphics/SVG/1.1/DTD/svg11-tiny.dtd">
<svg baseProfile="tiny" height="29.89845147033367mm" width="29.915525964706678mm" viewBox="-14.957762982353339 -14.939888169893413 29.915525964706678 29.89845147033367" version="1.1" stroke="black" stroke-width=".1" fill="none" xmlns="http://www.w3.org/2000/svg">
<path fill="#000000" stroke="#000000" d="M1.3333762796433173 -13.878066120453923 L1.2513318167924485 -13.630005034443878 L0.6814970295909035 -13.67034858199824 L0.653439588798932 -13.67171844569924 L0.6066354706853653 -13.928768967590525 L0.5397637842472922 -14.186356146354413 L0.45609266615194866 -14.444069729689183 L0.3573688100542881 -14.701573886735792 L0.24470114966271653 -14.958563300440247 L-0.24470114966271653 -14.958563300440247 L-0.3573688100542881 -14.701573886735792 L-0.45609266615194866 -14.444069729689183 L-0.5397637842472922 -14.186356146354413 L-0.6066354706853653 -13.928768967590525 L-0.653439588798932 -13.67171844569924 L-1.223355974008764 -13.632544469596994 L-1.2513318167924485 -13.630005034443878 L-1.3333762796433173 -13.878066120453923 L-1.4353684191304743 -14.123872102060236 L-1.5540147925404864 -14.367470511569053 L-1.6875389947674622 -14.60877131570929 L-1.8348004392541366 -14.847626140701312 L-2.3194614891781393 -14.77966823261414 L-2.395352353755503 -14.509523572981621 L-2.4573630225938614 -14.240805379311567 L-2.504437701170321 -13.973969996208996 L-2.5348932506455477 -13.70959254517209 L-2.5455501627451236 -13.448533114196165 L-3.107995734239471 -13.329787360293178 L-3.135346251781802 -13.323380668438485 L-3.2511027239087444 -13.557615668892506 L-3.386299170735768 -13.786842407899888 L-3.53768078834367 -14.011566133592098 L-3.703475920519208 -14.231944818600363 L-3.882534430523923 -14.447990208389554 L-4.353028340379493 -14.31326793341678 L-4.390599168344688 -14.035192416083303 L-4.4146232222066075 -13.760460482200262 L-4.42411846009745 -13.489670919077957 L-4.417498120306504 -13.223627410960088 L-4.391733266767976 -12.963624009830198 L-4.927015935069111 -12.769783965684681 L-4.953213312444779 -12.759645231592543 L-5.100343034722357 -12.975558272188737 L-5.266030056237746 -13.183814815932195 L-5.447121126817554 -13.385366722881328 L-5.64188363199954 -13.580616197232253 L-5.8491801837910105 -13.769734414413035 L-6.296437118148172 -13.571049122419756 L-6.295070912239363 -13.290450309279564 L-6.280752713457319 -13.015041921893276 L-6.252593036232797 -12.745553184434392 L-6.209131944235152 -12.483000122001323 L-6.147549291971826 -12.22908444068726 L-6.6797291869920805 -11.946718651710546 L-6.704233675149121 -11.932984512839989 L-6.880359812128338 -12.125974616601164 L-7.073777095292713 -12.308766114444808 L-7.2814981511336105 -12.482746314464567 L-7.501864460615537 -12.648557895195202 L-7.733774173011615 -12.806530822466426 L-8.14851783502233 -12.546718764611212 L-8.10756839447372 -12.269120667043834 L-8.054529020979627 -11.998488785111142 L-7.988622034959103 -11.735670566122689 L-7.908545486631432 -11.48187788790179 L-7.811747588895713 -11.239193394637558 L-8.25863859203504 -10.915024377473099 L-8.281022382464563 -10.898051975275372 L-8.48200689581024 -11.064997540272389 L-8.698716376154911 -11.219464294751642 L-8.928382527494113 -11.363237052837485 L-9.169450926839778 -11.497180389722885 L-9.420875545431802 -11.621772611069673 L-9.795964898929395 -11.307412010043116 L-9.717242533492337 -11.038078852718836 L-9.62750267269053 -10.777307788291916 L-9.526091519891635 -10.52604512666753 L-9.411886084452043 -10.28567022026783 L-9.282645109820592 -10.05859673711032 L-9.690389597736749 -9.666396329488975 L-9.710207781633141 -9.646488137772923 L-9.932371753319268 -9.783997286419899 L-10.168381407849935 -9.906970535864348 L-10.415742239564377 -10.017558808172547 L-10.673034507128333 -10.116833576925105 L-10.939288483542487 -10.20541337427146 L-11.26723847793582 -9.842145688174233 L-11.151982396891812 -9.586306683648635 L-11.027000451932967 -9.340472788318108 L-10.891776170243215 -9.105671722136409 L-10.74538836351615 -8.88342504127874 L-10.585951560435834 -8.676433490483788 L-10.954773420191911 -8.205839863593448 L-10.971591403929326 -8.18333982062988 L-11.210902077724812 -8.288201623420605 L-11.461874068343388 -8.376723016516063 L-11.722340536903634 -8.451384692055308 L-11.991046732075908 -8.513447332468973 L-12.267119666538054 -8.563659834017194 L-12.54065997780534 -8.157839296467877 L-12.390533108311612 -7.920774993987973 L-12.232185832023383 -7.694985422149112 L-12.06525150959089 -7.481560777291549 L-11.88903234276759 -7.282137151924059 L-11.702041868754668 -7.099653840617537 L-11.98932025175072 -6.602959068148356 L-12.002846423514393 -6.578339174002077 L-12.254412742140595 -6.648908172931008 L-12.515255102502346 -6.701674072445004 L-12.783572633654032 -6.739394750000382 L-13.0582980600758 -6.763493105472347 L-13.338671002228923 -6.77483214258637 L-13.553128189573775 -6.334919963417442 L-13.371497691359334 -6.121032323352279 L-13.183294296124277 -5.919452878266541 L-12.98830650892132 -5.73131221312403 L-12.786070795100802 -5.558327551474171 L-12.575523815944917 -5.4036163177343335 L-12.795329836459507 -4.860288358821074 L-12.80527778314339 -4.834017940721451 L-13.064243872793874 -4.8686901296934275 L-13.329903492196113 -4.884436358755269 L-13.600859407862892 -4.884239372081223 L-13.876253956175162 -4.869657416829701 L-14.155455001874103 -4.841651407922876 L-14.30624381842302 -4.376057869105167 L-14.096470412100508 -4.189690816077758 L-13.881911104843013 -4.016430623511028 L-13.662514688975527 -3.8574263476469084 L-13.438062487162153 -3.714443180065057 L-13.207937854078947 -3.5907166690607815 L-13.342929297952203 -3.0510828085339248 L-13.34916301262033 -3.023692348300649 L-13.610436448754182 -3.022355244048936 L-13.875732088828855 -3.00135047154407 L-14.14407696664976 -2.96382483249747 L-14.414836282561165 -2.911439877536477 L-14.687516318054861 -2.8452344495307083 L-14.772720750130457 -2.3633062231943622 L-14.539271359977747 -2.207617615096022 L-14.302887485713054 -2.065570247479826 L-14.063676717430539 -1.938309273979458 L-13.821665659683113 -1.8276131808298663 L-13.57668932026565 -1.736771618741848 L-13.637301605754 -1.1691336400864791 L-13.639672328122932 -1.1411429954743277 L-13.898230009779896 -1.103546166709837 L-14.158040476565315 -1.045913723942287 L-14.418577055775128 -0.9714970730352398 L-14.679441768629465 -0.8820298039000961 L-14.94028990057952 -0.7786092425380694 L-14.957762982353332 -0.289518962530026 L-14.70495997502161 -0.16774786604852268 L-14.451144718260952 -0.05989330613287524 L-14.196582742319663 0.03292558980668358 L-13.941547301916819 0.10895125158701978 L-13.686331705837615 0.1649029789500596 L-13.666360156474644 0.7572771145392484 L-13.66477719565217 0.7853233396932475 L-13.915494409443737 0.8588520754743327 L-14.164638774831452 0.9523938431835427 L-14.41214537017094 1.0626554969985842 L-14.657863574604828 1.1878647405425864 L-14.901606165319539 1.3268867169562195 L-14.850232443290903 1.813585136174882 L-14.582835868626582 1.8986535340207287 L-14.316391108768872 1.9698011313339512 L-14.051318201343072 2.025957170968212 L-13.788134476371672 2.065419862472849 L-13.527590983639136 2.0849821903430565 L-13.430896450482269 2.6370227703046685 L-13.425456135532407 2.6645817884947385 L-13.663619312726544 2.7720243187412144 L-13.897461383367089 2.8990710153104424 L-14.127372752733798 3.0424513112875995 L-14.353448954633595 3.2003890888889015 L-14.575661256275284 3.3717345103432668 L-14.457578140968204 3.8466776526923225 L-14.180996873950853 3.894010127689387 L-13.907280436199251 3.9276865640158376 L-13.636992688137374 3.9467044578585306 L-13.37088098136586 3.9494497501494115 L-13.110131984351636 3.932849845539854 L-12.92966482131273 4.490727798830673 L-12.920421155793022 4.51725422260234 L-13.141203851160453 4.656970355182879 L-13.354964358189285 4.815492980525093 L-13.562546956626761 4.989638356187262 L-13.764294808198436 5.1776612139606994 L-13.960340382958364 5.378419010998123 L-13.776950971166528 5.8321622580307 L-13.496467476945853 5.840321297436829 L-13.220731783778312 5.83535962710396 L-12.95044250352663 5.816363521724162 L-12.686565520713726 5.7818393989667465 L-12.430705835711741 5.728910976851066 L-12.175612712879161 6.25278526903474 L-12.16275431985985 6.277760421473018 L-12.361856150943073 6.446946878189501 L-12.551377648004408 6.633774550824585 L-12.732599535618304 6.835208844052498 L-12.906105399543176 7.049569535044946 L-13.072186007592984 7.275743786638881 L-12.827213269528867 7.699421692825161 L-12.54833995373966 7.668321303840383 L-12.276000662289716 7.6248920396097 L-12.01101479185451 7.568326718888709 L-11.754547388947291 7.497281322439412 L-11.508589492893549 7.409131962567728 L-11.184906032330948 7.889280423626057 L-11.168691104959105 7.912218876945323 L-11.342259700299778 8.10751234582853 L-11.503881933381562 8.318939001868559 L-11.655249113780886 8.543672452286003 L-11.797173389907238 8.780130250857098 L-11.930097845303509 9.027250969559267 L-11.628447118832996 9.412635776998316 L-11.356633730329156 9.342957643524958 L-11.093009482817806 9.261982049775046 L-10.838498309867367 9.169023941565145 L-10.59444126672377 9.062914861828224 L-10.36317577764055 8.94133414857127 L-9.99827856490018 9.347582269942324 L-9.979073226467092 9.368082306186801 L-10.12424228201665 9.58531844863971 L-10.25536685765166 9.816898505585788 L-10.374509623268523 10.060254517304704 L-10.482691916750506 10.313930259219566 L-10.580498094876368 10.576935034793475 L-10.228881732720978 10.91734735015476 L-9.969180962215605 10.811078491813353 L-9.719140229625928 10.694740953997334 L-9.479768628947562 10.567782756832875 L-9.252554684100515 10.429230238351058 L-9.040131781285966 10.277104939216391 L-8.575084865871313 10.668213913199684 L-8.553172158664651 10.685790311386725 L-8.666143618512862 10.921381154877585 L-8.763182348754562 11.169184427543 L-8.846693612690107 11.426949855470138 L-8.917894516680692 11.693380375362285 L-8.977503713898063 11.9675779392854 L-8.581259287808404 12.2548147150957 L-8.339207415138718 12.112869474275975 L-8.108143029694553 11.962323665837527 L-7.889143173998537 11.802773641570225 L-7.683819161685932 11.633466148887637 L-7.495057821217603 11.452815235185074 L-7.006350244537822 11.758142914829167 L-6.982203951993716 11.772497463471625 L-7.061276338389116 12.02152186787149 L-7.122870944391986 12.280421619941595 L-7.16968289227468 12.547303220232813 L-7.203098012467307 12.821051682149202 L-7.223952985567087 13.100877754114054 L-6.791578345580667 13.330152221252535 L-6.571645275924889 13.155890907915184 L-6.363790060958972 12.974642458899616 L-6.169135450246127 12.78615710252729 L-5.989381933307205 12.589913248461235 L-5.827609021200631 12.384742292462269 L-5.319445381373401 12.611358744769245 L-5.293551564849072 12.622249418584884 L-5.337558276799113 12.87979360038738 L-5.362893243346953 13.144710788543662 L-5.372486775002826 13.415496887132457 L-5.367865111618293 13.691238488793571 L-5.349965699833779 13.971269150529102 L-4.890124613219277 14.138782689224383 L-4.696299562522986 13.935880224535433 L-4.515399885589768 13.727721396847214 L-4.348572038050028 13.5142135133304 L-4.197572157390374 13.295074258171994 L-4.0656113979785955 13.069570479373416 L-3.51298885423512 13.228823752121817 L-3.4858316029434544 13.236005688673725 L-3.4935761769083706 13.497167741528026 L-3.481804761915668 13.763033141495153 L-3.4536284418428043 14.032520139373945 L-3.410685700222743 14.304936569864525 L-3.353997592501503 14.579752906528226 L-2.8753219189147097 14.681655851045301 L-2.711613562198738 14.453758649667956 L-2.5614362127126915 14.222454619524894 L-2.425938071634663 13.987811484524162 L-2.3068974753485056 13.749794019731246 L-2.207596352525818 13.508122996885884 L-1.621541238256837 13.590933469313836 L-1.5936448033748918 13.59423277700359 L-1.5646584269548187 13.85389676422362 L-1.5156891155062726 14.115478460156014 L-1.4499689832418166 14.378343465916984 L-1.3692174416582874 14.642036429780186 L-1.2745197590762665 14.906176372552695 L-0.7862799355212027 14.939888169893404 L-0.6561775356117268 14.69127013757864 L-0.5399503619410163 14.4411780850068 L-0.4387257455116752 14.189840216655641 L-0.3542693643046836 13.937471247120893 L-0.2898698518520819 13.684255333180165 L0.2617846946550345 13.684821421133961 L0.2898698518520819 13.684255333180165 L0.3542693643046836 13.937471247120893 L0.4387257455116752 14.189840216655641 L0.5399503619410163 14.4411780850068 L0.6561775356117268 14.69127013757864 L0.7862799355212027 14.939888169893404 L1.2745197590762665 14.906176372552695 L1.3692174416582874 14.642036429780186 L1.4499689832418166 14.378343465916984 L1.5156891155062726 14.115478460156014 L1.5646584269548187 13.85389676422362 L1.5936448033748918 13.59423277700359 L2.179868637446339 13.512625254855562 L2.207596352525818 13.508122996885884 L2.3068974753485056 13.749794019731246 L2.425938071634663 13.987811484524162 L2.5614362127126915 14.222454619524894 L2.711613562198738 14.453758649667956 L2.8753219189147097 14.681655851045301 L3.353997592501503 14.579752906528226 L3.410685700222743 14.304936569864525 L3.4536284418428043 14.032520139373945 L3.481804761915668 13.763033141495153 L3.4935761769083706 13.497167741528026 L3.4858316029434544 13.236005688673725 L4.038779822410629 13.077886912677112 L4.0656113979785955 13.069570479373416 L4.197572157390374 13.295074258171994 L4.348572038050028 13.5142135133304 L4.515399885589768 13.727721396847214 L4.696299562522986 13.935880224535433 L4.890124613219277 14.138782689224383 L5.349965699833779 13.971269150529102 L5.367865111618293 13.691238488793571 L5.372486775002826 13.415496887132457 L5.362893243346953 13.144710788543662 L5.337558276799113 12.87979360038738 L5.293551564849072 12.622249418584884 L5.802179225205348 12.396676360754038 L5.827609021200631 12.384742292462269 L5.989381933307205 12.589913248461235 L6.169135450246127 12.78615710252729 L6.363790060958972 12.974642458899616 L6.571645275924889 13.155890907915184 L6.791578345580667 13.330152221252535 L7.223952985567087 13.100877754114054 L7.203098012467307 12.821051682149202 L7.16968289227468 12.547303220232813 L7.122870944391986 12.280421619941595 L7.061276338389116 12.02152186787149 L6.982203951993716 11.772497463471625 L7.471537131239645 11.468173413895945 L7.495057821217603 11.452815235185074 L7.683819161685932 11.633466148887637 L7.889143173998537 11.802773641570225 L8.108143029694553 11.962323665837527 L8.339207415138718 12.112869474275975 L8.581259287808404 12.2548147150957 L8.977503713898063 11.9675779392854 L8.917894516680692 11.693380375362285 L8.846693612690107 11.426949855470138 L8.763182348754562 11.169184427543 L8.666143618512862 10.921381154877585 L8.553172158664651 10.685790311386725 L9.019020777616612 10.295636588749739 L9.040131781285966 10.277104939216391 L9.252554684100515 10.429230238351058 L9.479768628947562 10.567782756832875 L9.719140229625928 10.694740953997334 L9.969180962215605 10.811078491813353 L10.228881732720978 10.91734735015476 L10.580498094876368 10.576935034793475 L10.482691916750506 10.313930259219566 L10.374509623268523 10.060254517304704 L10.25536685765166 9.816898505585788 L10.12424228201665 9.58531844863971 L9.979073226467092 9.368082306186801 L10.34480342412112 8.96258392825275 L10.36317577764055 8.94133414857127 L10.59444126672377 9.062914861828224 L10.838498309867367 9.169023941565145 L11.093009482817806 9.261982049775046 L11.356633730329156 9.342957643524958 L11.628447118832996 9.412635776998316 L11.930097845303509 9.027250969559267 L11.797173389907238 8.780130250857098 L11.655249113780886 8.543672452286003 L11.503881933381562 8.318939001868559 L11.342259700299778 8.10751234582853 L11.168691104959105 7.912218876945323 L11.493359304787049 7.4327357309235405 L11.508589492893549 7.409131962567728 L11.754547388947291 7.497281322439412 L12.01101479185451 7.568326718888709 L12.276000662289716 7.6248920396097 L12.54833995373966 7.668321303840383 L12.827213269528867 7.699421692825161 L13.072186007592984 7.275743786638881 L12.906105399543176 7.049569535044946 L12.732599535618304 6.835208844052498 L12.551377648004408 6.633774550824585 L12.361856150943073 6.446946878189501 L12.16275431985985 6.277760421473018 L12.418922066050552 5.7544107667115005 L12.430705835711741 5.728910976851066 L12.686565520713726 5.7818393989667465 L12.95044250352663 5.816363521724162 L13.220731783778312 5.83535962710396 L13.496467476945853 5.840321297436829 L13.776950971166528 5.8321622580307 L13.960340382958364 5.378419010998123 L13.764294808198436 5.1776612139606994 L13.562546956626761 4.989638356187262 L13.354964358189285 4.815492980525093 L13.141203851160453 4.656970355182879 L12.920421155793022 4.51725422260234 L13.102032885936147 3.9597478215828685 L13.110131984351636 3.932849845539854 L13.37088098136586 3.9494497501494115 L13.636992688137374 3.9467044578585306 L13.907280436199251 3.9276865640158376 L14.180996873950853 3.894010127689387 L14.457578140968204 3.8466776526923225 L14.575661256275284 3.3717345103432668 L14.353448954633595 3.2003890888889015 L14.127372752733798 3.0424513112875995 L13.897461383367089 2.8990710153104424 L13.663619312726544 2.7720243187412144 L13.425456135532407 2.6645817884947385 L13.523283432030146 2.1127408198029234 L13.527590983639136 2.0849821903430565 L13.788134476371672 2.065419862472849 L14.051318201343072 2.025957170968212 L14.316391108768872 1.9698011313339512 L14.582835868626582 1.8986535340207287 L14.850232443290903 1.813585136174882 L14.901606165319539 1.3268867169562195 L14.657863574604828 1.1878647405425864 L14.41214537017094 1.0626554969985842 L14.164638774831452 0.9523938431835427 L13.915494409443737 0.8588520754743327 L13.66477719565217 0.7853233396932475 L13.685964447522686 0.19299143977802977 L13.686331705837615 0.1649029789500596 L13.941547301916819 0.10895125158701978 L14.196582742319663 0.03292558980668358 L14.451144718260952 -0.05989330613287524 L14.70495997502161 -0.16774786604852268 L14.957762982353332 -0.289518962530026 L14.94028990057952 -0.7786092425380694 L14.679441768629465 -0.8820298039000961 L14.418577055775128 -0.9714970730352398 L14.158040476565315 -1.045913723942287 L13.898230009779896 -1.103546166709837 L13.639672328122932 -1.1411429954743277 L13.580225148206825 -1.7089041748130496 L13.57668932026565 -1.736771618741848 L13.821665659683113 -1.8276131808298663 L14.063676717430539 -1.938309273979458 L14.302887485713054 -2.065570247479826 L14.539271359977747 -2.207617615096022 L14.772720750130457 -2.3633062231943622 L14.687516318054861 -2.8452344495307083 L14.414836282561165 -2.911439877536477 L14.14407696664976 -2.96382483249747 L13.875732088828855 -3.00135047154407 L13.610436448754182 -3.022355244048936 L13.34916301262033 -3.023692348300649 L13.215279357396605 -3.563602118734598 L13.207937854078947 -3.5907166690607815 L13.438062487162153 -3.714443180065057 L13.662514688975527 -3.8574263476469084 L13.881911104843013 -4.016430623511028 L14.096470412100508 -4.189690816077758 L14.30624381842302 -4.376057869105167 L14.155455001874103 -4.841651407922876 L13.876253956175162 -4.869657416829701 L13.600859407862892 -4.884239372081223 L13.329903492196113 -4.884436358755269 L13.064243872793874 -4.8686901296934275 L12.80527778314339 -4.834017940721451 L12.586587311392186 -5.377795868883809 L12.575523815944917 -5.4036163177343335 L12.786070795100802 -5.558327551474171 L12.98830650892132 -5.73131221312403 L13.183294296124277 -5.919452878266541 L13.371497691359334 -6.121032323352279 L13.553128189573775 -6.334919963417442 L13.338671002228923 -6.77483214258637 L13.0582980600758 -6.763493105472347 L12.783572633654032 -6.739394750000382 L12.515255102502346 -6.701674072445004 L12.254412742140595 -6.648908172931008 L12.002846423514393 -6.578339174002077 L11.716588024900444 -7.075622489183694 L11.702041868754668 -7.099653840617537 L11.88903234276759 -7.282137151924059 L12.06525150959089 -7.481560777291549 L12.232185832023383 -7.694985422149112 L12.390533108311612 -7.920774993987973 L12.54065997780534 -8.157839296467877 L12.267119666538054 -8.563659834017194 L11.991046732075908 -8.513447332468973 L11.722340536903634 -8.451384692055308 L11.461874068343388 -8.376723016516063 L11.210902077724812 -8.288201623420605 L10.971591403929326 -8.18333982062988 L10.603736132240021 -8.654689398962272 L10.585951560435834 -8.676433490483788 L10.74538836351615 -8.88342504127874 L10.891776170243215 -9.105671722136409 L11.027000451932967 -9.340472788318108 L11.151982396891812 -9.586306683648635 L11.26723847793582 -9.842145688174233 L10.939288483542487 -10.20541337427146 L10.673034507128333 -10.116833576925105 L10.415742239564377 -10.017558808172547 L10.168381407849935 -9.906970535864348 L9.932371753319268 -9.783997286419899 L9.710207781633141 -9.646488137772923 L9.303269075349563 -10.03952454383807 L9.282645109820592 -10.05859673711032 L9.411886084452043 -10.28567022026783 L9.526091519891635 -10.52604512666753 L9.62750267269053 -10.777307788291916 L9.717242533492337 -11.038078852718836 L9.795964898929395 -11.307412010043116 L9.420875545431802 -11.621772611069673 L9.169450926839778 -11.497180389722885 L8.928382527494113 -11.363237052837485 L8.698716376154911 -11.219464294751642 L8.48200689581024 -11.064997540272389 L8.281022382464563 -10.898051975275372 L7.8347976208410515 -11.223137475552276 L7.811747588895713 -11.239193394637558 L7.908545486631432 -11.48187788790179 L7.988622034959103 -11.735670566122689 L8.054529020979627 -11.998488785111142 L8.10756839447372 -12.269120667043834 L8.14851783502233 -12.546718764611212 L7.733774173011615 -12.806530822466426 L7.501864460615537 -12.648557895195202 L7.2814981511336105 -12.482746314464567 L7.073777095292713 -12.308766114444808 L6.880359812128338 -12.125974616601164 L6.704233675149121 -11.932984512839989 L6.172634407432097 -12.216441913538816 L6.147549291971826 -12.22908444068726 L6.209131944235152 -12.483000122001323 L6.252593036232797 -12.745553184434392 L6.280752713457319 -13.015041921893276 L6.295070912239363 -13.290450309279564 L6.296437118148172 -13.571049122419756 L5.8491801837910105 -13.769734414413035 L5.64188363199954 -13.580616197232253 L5.447121126817554 -13.385366722881328 L5.266030056237746 -13.183814815932195 L5.100343034722357 -12.975558272188737 L4.953213312444779 -12.759645231592543 L4.418329594334266 -12.954583441798217 L4.391733266767976 -12.963624009830198 L4.417498120306504 -13.223627410960088 L4.42411846009745 -13.489670919077957 L4.4146232222066075 -13.760460482200262 L4.390599168344688 -14.035192416083303 L4.353028340379493 -14.31326793341678 L3.882534430523923 -14.447990208389554 L3.703475920519208 -14.231944818600363 L3.53768078834367 -14.011566133592098 L3.386299170735768 -13.786842407899888 L3.2511027239087444 -13.557615668892506 L3.135346251781802 -13.323380668438485 L2.5731455697539336 -13.443280493671857 L2.5455501627451236 -13.448533114196165 L2.5348932506455477 -13.70959254517209 L2.504437701170321 -13.973969996208996 L2.4573630225938614 -14.240805379311567 L2.395352353755503 -14.509523572981621 L2.3194614891781393 -14.77966823261414 L1.8348004392541366 -14.847626140701312 L1.6875389947674622 -14.60877131570929 L1.5540147925404864 -14.367470511569053 L1.4353684191304743 -14.123872102060236 z"/>
</svg>